<svg xmlns="http://www.w3.org/2000/svg" width="800" height="72" viewBox="0 0 800 72">
  <rect width="800" height="72" fill="#F0F7FF"/>
  <rect width="800" height="2" fill="#2563EB" opacity="0.3"/>
  <text x="24" y="20" font-family="'Helvetica Neue',Arial,sans-serif" font-size="9" font-weight="700" fill="#2563EB" letter-spacing="2">PREREQUISITES</text>
  <!-- 4 prereq items -->
  <rect x="16" y="28" width="172" height="32" rx="6" fill="#FFFFFF" stroke="#BFDBFE" stroke-width="1"/>
  <rect x="22" y="34" width="20" height="20" rx="5" fill="#E6F0FF"/>
  <text x="32" y="49" text-anchor="middle" font-size="11" fill="#2563EB" font-family="sans-serif">✓</text>
  <text id="slot_pre1" x="48" y="49" font-family="'Helvetica Neue',Arial,sans-serif" font-size="11.5" font-weight="500" fill="#1E40AF">Paid Plan</text>
  <rect x="200" y="28" width="172" height="32" rx="6" fill="#FFFFFF" stroke="#BFDBFE" stroke-width="1"/>
  <rect x="206" y="34" width="20" height="20" rx="5" fill="#E6F0FF"/>
  <text x="216" y="49" text-anchor="middle" font-size="11" fill="#2563EB" font-family="sans-serif">✓</text>
  <text id="slot_pre2" x="232" y="49" font-family="'Helvetica Neue',Arial,sans-serif" font-size="11.5" font-weight="500" fill="#1E40AF">Mac / Windows</text>
  <rect x="384" y="28" width="172" height="32" rx="6" fill="#FFFFFF" stroke="#BFDBFE" stroke-width="1"/>
  <rect x="390" y="34" width="20" height="20" rx="5" fill="#E6F0FF"/>
  <text x="400" y="49" text-anchor="middle" font-size="11" fill="#2563EB" font-family="sans-serif">✓</text>
  <text id="slot_pre3" x="416" y="49" font-family="'Helvetica Neue',Arial,sans-serif" font-size="11.5" font-weight="500" fill="#1E40AF">8GB RAM</text>
  <rect x="568" y="28" width="216" height="32" rx="6" fill="#FFFFFF" stroke="#BFDBFE" stroke-width="1"/>
  <rect x="574" y="34" width="20" height="20" rx="5" fill="#E6F0FF"/>
  <text x="584" y="49" text-anchor="middle" font-size="11" fill="#2563EB" font-family="sans-serif">✓</text>
  <text id="slot_pre4" x="600" y="49" font-family="'Helvetica Neue',Arial,sans-serif" font-size="11.5" font-weight="500" fill="#1E40AF">Internet Connection</text>
</svg>
