<svg xmlns="http://www.w3.org/2000/svg" viewBox="0 0 128 128"><rect width="128" height="128" rx="24" fill="#fff"/><path d="M100 64c0-3 0-5-1-8H64v14h20c-1 5-4 8-8 11v9h13c8-7 11-17 11-26z" fill="#4285F4"/><path d="M64 100c11 0 20-4 26-10l-13-9c-4 2-8 4-13 4-10 0-18-7-21-16H30v10c6 13 19 21 34 21z" fill="#34A853"/><path d="M43 69a21 21 0 010-13V46H30a36 36 0 000 32l13-9z" fill="#FBBC04"/><path d="M64 39c6 0 11 2 15 6l11-11c-7-6-16-10-26-10-15 0-28 8-34 21l13 10c3-9 11-16 21-16z" fill="#EA4335"/></svg>