<svg xmlns="http://www.w3.org/2000/svg" viewBox="0 0 128 128"><rect width="128" height="128" rx="24" fill="#4A154B"/><path d="M44 76a8 8 0 01-8 8 8 8 0 018-8h8v8a8 8 0 01-8 8zm4 0a8 8 0 0116 0v20a8 8 0 01-16 0V76zM52 44a8 8 0 01-8-8 8 8 0 018 8v8h-8a8 8 0 01-8-8 8 8 0 018-8h8zm0 4a8 8 0 010 16H32a8 8 0 010-16h20zM84 52a8 8 0 018-8 8 8 0 01-8 8h-8v-8a8 8 0 018-8 8 8 0 018 8zm-4 0a8 8 0 01-16 0V32a8 8 0 0116 0v20zM76 84a8 8 0 018 8 8 8 0 01-8-8v-8h8a8 8 0 018 8 8 8 0 01-8 8h-8zm0-4a8 8 0 010-16h20a8 8 0 010 16H76z" fill="#fff"/></svg>